<svg width="90" height="80" viewBox="0 0 90 80" fill="none" xmlns="http://www.w3.org/2000/svg">
<path d="M32.5 0C27.8281 0 23.9531 3.20312 22.8438 7.53125C22.7188 7.53125 22.625 7.5 22.5 7.5C16.9844 7.5 12.5 11.9844 12.5 17.5C12.5 18.25 12.5937 18.9844 12.7656 19.6875C8.20312 21.5625 5 26.0312 5 31.25C5 33.2188 5.5 35.0469 6.29688 36.7031C2.54688 38.8594 0 42.8594 0 47.5C0 52.7031 3.1875 57.1719 7.71875 59.0469C7.57813 59.7656 7.5 60.5 7.5 61.25C7.5 67.4688 12.5312 72.5 18.75 72.5C19.3906 72.5 20.0156 72.4219 20.625 72.3125C22.125 76.7656 26.2812 80 31.25 80C37.4688 80 42.5 74.9688 42.5 68.75V10C42.5 4.48438 38.0156 0 32.5 0ZM90 47.5C90 42.8594 87.4531 38.8594 83.7031 36.7031C84.5156 35.0469 85 33.2188 85 31.25C85 26.0312 81.7969 21.5625 77.2344 19.6875C77.3906 18.9844 77.5 18.25 77.5 17.5C77.5 11.9844 73.0156 7.5 67.5 7.5C67.375 7.5 67.2656 7.53125 67.1562 7.53125C66.0469 3.20312 62.1719 0 57.5 0C51.9844 0 47.5 4.46875 47.5 10V68.75C47.5 74.9688 52.5312 80 58.75 80C63.7188 80 67.875 76.7656 69.375 72.3125C69.9844 72.4219 70.6094 72.5 71.25 72.5C77.4688 72.5 82.5 67.4688 82.5 61.25C82.5 60.5 82.4219 59.7656 82.2812 59.0469C86.8125 57.1719 90 52.7031 90 47.5Z" fill="white"/>
</svg>
