<svg width="80" height="80" viewBox="0 0 80 80" fill="none" xmlns="http://www.w3.org/2000/svg">
<path d="M57.44 48C57.76 45.36 58 42.72 58 40C58 37.28 57.76 34.64 57.44 32H70.96C71.6 34.56 72 37.24 72 40C72 42.76 71.6 45.44 70.96 48H57.44ZM50.36 70.24C52.76 65.8 54.6 61 55.88 56H67.68C63.8047 62.6731 57.6565 67.728 50.36 70.24ZM49.36 48H30.64C30.24 45.36 30 42.72 30 40C30 37.28 30.24 34.6 30.64 32H49.36C49.72 34.6 50 37.28 50 40C50 42.72 49.72 45.36 49.36 48ZM40 71.84C36.68 67.04 34 61.72 32.36 56H47.64C46 61.72 43.32 67.04 40 71.84ZM24 24H12.32C16.1554 17.3089 22.2992 12.2459 29.6 9.76C27.2 14.2 25.4 19 24 24ZM12.32 56H24C25.4 61 27.2 65.8 29.6 70.24C22.3145 67.7267 16.1794 62.6709 12.32 56ZM9.04 48C8.4 45.44 8 42.76 8 40C8 37.24 8.4 34.56 9.04 32H22.56C22.24 34.64 22 37.28 22 40C22 42.72 22.24 45.36 22.56 48H9.04ZM40 8.12C43.32 12.92 46 18.28 47.64 24H32.36C34 18.28 36.68 12.92 40 8.12ZM67.68 24H55.88C54.6281 19.0458 52.7743 14.2636 50.36 9.76C57.72 12.28 63.84 17.36 67.68 24ZM40 0C17.88 0 0 18 0 40C0 50.6087 4.21427 60.7828 11.7157 68.2843C15.4301 71.9986 19.8396 74.945 24.6927 76.9552C29.5457 78.9654 34.7471 80 40 80C50.6087 80 60.7828 75.7857 68.2843 68.2843C75.7857 60.7828 80 50.6087 80 40C80 34.7471 78.9654 29.5457 76.9552 24.6927C74.945 19.8396 71.9986 15.4301 68.2843 11.7157C64.5699 8.00139 60.1604 5.05501 55.3073 3.04482C50.4543 1.03463 45.2529 0 40 0Z" fill="white"/>
</svg>
