<svg width="86" height="80" viewBox="0 0 86 80" fill="none" xmlns="http://www.w3.org/2000/svg">
<path fill-rule="evenodd" clip-rule="evenodd" d="M85.1689 69.3903C82.3917 70.3518 76.9073 72.3447 70.601 61.6766C64.2947 51.0193 55.9579 53.4956 55.9579 53.4956C55.4906 53.5762 55.0931 53.732 54.6795 53.8717C45.2684 40.4694 18.8023 11.28 16.471 8.9433C13.1245 5.60214 7.50576 2.46511 2.80558 7.3909C-1.61527 12.0212 0.651558 18.0643 3.99809 21.4109C6.35086 23.7636 35.7015 50.364 49.0983 59.7429C48.8775 60.324 48.74 60.9334 48.6901 61.5531C48.6901 81.1381 68.7209 80.1014 72.8624 79.344C80.2484 78.0064 87.946 68.4395 85.1689 69.3903Z" fill="white"/>
<path fill-rule="evenodd" clip-rule="evenodd" d="M30.2701 56.9703L29.0507 61.0098L31.6614 63.6204L11.1901 72.5159L7.16133 68.6537L16.4059 49.1707L16.3092 52.9631L21.6701 52.8879L26.2521 48.3489C23.4052 45.9316 20.5689 43.4822 17.8616 41.1133L13.3817 45.5986C13.3817 45.5986 0.962462 74.1757 0.119115 76.4855C-0.552339 78.3119 1.76284 80.627 3.36358 79.8428C5.94197 78.5697 34.1968 66.3063 34.1968 66.3063L40.4708 60.0107C38.0049 58.0882 35.5677 56.1291 33.16 54.1341L30.2701 56.9703Z" fill="white"/>
<path fill-rule="evenodd" clip-rule="evenodd" d="M65.3684 9.64753L72.1313 16.2869L49.4093 38.3482C51.4398 40.8191 53.3521 43.1934 55.0549 45.3904L77.9434 22.4267C80.64 19.7301 80.7904 15.841 77.9004 12.9565L67.1303 2.26691C64.235 -0.617662 59.7013 -0.768067 57.0102 1.92312L36.1628 22.808C38.5586 25.5476 41.0457 28.4214 43.4898 31.3006L65.3684 9.64753Z" fill="white"/>
</svg>
