<svg width="80" height="80" viewBox="0 0 80 80" fill="none" xmlns="http://www.w3.org/2000/svg">
<path d="M40.4 56.1C40.4 56.54 40.74 56.9 41.15 56.9H59.65C60.06 56.9 60.4 56.54 60.4 56.1V51.3C60.4 50.86 60.06 50.5 59.65 50.5H41.15C40.74 50.5 40.4 50.86 40.4 51.3V56.1ZM20.91 56.71L40.11 40.61C40.49 40.29 40.49 39.7 40.11 39.38L20.91 23.29C20.7941 23.1914 20.6523 23.1282 20.5016 23.1078C20.3508 23.0874 20.1973 23.1107 20.0594 23.1749C19.9215 23.2392 19.8049 23.3416 19.7234 23.4701C19.642 23.5987 19.5992 23.7479 19.6 23.9V30.17C19.6 30.41 19.7 30.63 19.89 30.78L30.87 40L19.89 49.22C19.8006 49.2948 19.7284 49.3881 19.6784 49.4933C19.6283 49.5986 19.6016 49.7134 19.6 49.83V56.1C19.6 56.78 20.39 57.15 20.91 56.71ZM76.8 0H3.2C1.43 0 0 1.43 0 3.2V76.8C0 78.57 1.43 80 3.2 80H76.8C78.57 80 80 78.57 80 76.8V3.2C80 1.43 78.57 0 76.8 0ZM72.8 72.8H7.2V7.2H72.8V72.8Z" fill="white"/>
</svg>
