
<svg width="117" height="80" viewBox="0 0 117 80" fill="none" xmlns="http://www.w3.org/2000/svg">
<path d="M94.5283 0C90.5676 3.79059 85.8562 6.70861 80.6981 8.56571C75.259 9.52554 60.2072 2.54499 52.7904 9.67097C51.5543 10.9071 50.0273 12.1432 48.4276 13.3794C44.9373 11.8524 39.5564 9.52554 35.6299 7.27141C31.7033 5.01727 21.8142 0 21.8142 0L0 25.4499C0 25.4499 5.38084 32.7213 8.72569 37.5205C10.9071 40.7199 13.5975 45.5917 15.3427 48.8638L12.8704 51.7724C12.2783 52.9485 12.0653 54.2792 12.2606 55.5814C12.456 56.8835 13.05 58.0932 13.9611 59.0438C15.0127 59.8322 16.2922 60.2571 17.6065 60.2545C18.9208 60.2519 20.1986 59.8218 21.247 59.0293C20.8583 59.4844 20.5641 60.0125 20.3816 60.5826C20.199 61.1527 20.1319 61.7534 20.184 62.3497C20.2361 62.946 20.4065 63.526 20.6851 64.0558C20.9638 64.5856 21.3451 65.0545 21.8069 65.4354C22.9173 66.0839 24.1806 66.4244 25.4664 66.4218C26.7523 66.4193 28.0142 66.0737 29.122 65.4208C28.2912 66.4564 27.8366 67.7433 27.8326 69.0709C27.8287 70.3985 28.2756 71.6881 29.1002 72.7286C30.172 73.0997 31.3152 73.2179 32.4403 73.0741C33.5655 72.9303 34.6422 72.5284 35.5863 71.8997C35.1159 73.0129 34.9941 74.2426 35.2368 75.4265C35.4796 76.6104 36.0755 77.6929 36.946 78.5312C38.1757 79.0776 39.5239 79.3028 40.8644 79.1858C42.2049 79.0688 43.4937 78.6134 44.6101 77.8622L48.3621 74.4665C51.7942 77.884 56.5279 80 61.756 80L62.1996 79.9927C63.9225 79.8457 65.573 79.2327 66.9743 78.2195C68.3756 77.2064 69.4749 75.8311 70.1545 74.2411C71.2161 74.6482 72.4232 74.9246 73.703 74.9246C75.419 74.9246 77.0115 74.4301 78.3567 73.5794C82.6104 70.7653 81.5924 68.5839 81.5924 68.5839C83.105 69.235 84.7852 69.3894 86.3911 69.0248C87.997 68.6602 89.4458 67.7955 90.529 66.5552C91.6546 65.4037 92.3644 63.9099 92.5461 62.3099C92.7278 60.7099 92.3712 59.095 91.5324 57.7204C91.5784 57.7479 91.6317 57.7606 91.6852 57.7568C94.7464 57.7568 97.4077 56.0698 98.7966 53.583C99.48 51.8155 99.711 49.9053 99.4684 48.0258C99.2259 46.1464 98.5175 44.3574 97.4077 42.8213L97.4296 42.8577C103.392 41.6942 103.174 38.713 106.083 34.3501C108.837 30.7898 112.263 27.8053 116.168 25.5663L94.5283 0ZM94.1647 51.3361C90.9653 54.5355 88.493 53.154 83.0395 49.0093C77.5859 44.8646 66.7515 37.0842 66.7515 37.0842C67.1951 39.3019 68.2203 41.2289 69.6673 42.7631C71.9869 45.3736 78.8947 51.3361 82.1669 54.3901C84.2029 56.2807 89.4383 60.0618 86.3843 62.9704C83.3303 65.8789 80.9307 62.9704 75.9135 58.8984C70.8962 54.8264 59.6982 44.7919 59.6982 44.7919C59.6365 45.7537 59.7796 46.7178 60.1181 47.6202C60.4565 48.5227 60.9826 49.3431 61.6615 50.0273C62.8977 51.4815 69.8055 58.1712 72.7141 61.2252C75.6226 64.2792 78.1676 66.0971 75.6953 68.4966C73.2231 70.8962 68.2058 67.1151 65.4426 64.2792C61.1525 60.1345 52.645 52.4268 52.645 52.4268L52.6377 52.8122C52.6377 54.8773 53.3503 56.7679 54.5501 58.2658C56.6442 61.0144 60.7162 64.5773 63.1885 67.3405C65.6608 70.1036 67.1151 72.4305 63.1885 74.6119C59.2619 76.7933 53.4448 71.4125 50.8998 68.7948V68.7802C50.9004 68.062 50.6422 67.3677 50.1727 66.8242C49.3029 66.0185 48.2298 65.4654 47.0689 65.2245C45.908 64.9836 44.7034 65.0641 43.5848 65.4572C44.045 65.0452 44.4139 64.5414 44.6679 63.9783C44.9218 63.4152 45.0551 62.8052 45.0592 62.1875C45.0633 61.5697 44.9381 60.958 44.6917 60.3916C44.4453 59.8251 44.0831 59.3165 43.6284 58.8984C42.674 58.1752 41.5089 57.7844 40.3114 57.7857C39.1139 57.787 37.9498 58.1804 36.9969 58.9057C37.4787 58.4454 37.8507 57.8825 38.0851 57.2588C38.3196 56.6351 38.4105 55.9666 38.3511 55.3029C38.2917 54.6393 38.0836 53.9975 37.7421 53.4253C37.4007 52.8531 36.9347 52.3652 36.3788 51.9978C35.0771 51.1799 33.5497 50.7956 32.0159 50.9001C30.4821 51.0047 29.0209 51.5926 27.8422 52.5795C28.63 51.6247 29.0184 50.4025 28.9263 49.168C28.8341 47.9336 28.2686 46.7825 27.3478 45.9553C26.2033 44.8901 24.745 44.2238 23.1906 44.0561C21.6362 43.8883 20.0692 44.2281 18.7239 45.0245L13.8884 36.8588C10.5435 31.5506 6.61698 26.0244 6.61698 26.0244L23.1958 5.88257C23.1958 5.88257 29.0856 9.51827 33.9575 12.2814C36.357 13.663 40.5017 15.4808 43.6284 16.9351C38.6839 20.6435 34.5392 24.2065 35.7753 26.6788C37.9782 28.2601 40.6108 29.1324 43.3222 29.1791C46.0335 29.2259 48.6946 28.445 50.9507 26.9406C53.8435 25.0175 57.2426 23.9975 60.7162 24.0102C63.2394 24.0102 65.639 24.5337 67.8131 25.4863C71.8415 28.2058 79.2583 34.8955 86.0207 39.1129C94.5283 45.2936 96.2007 49.2929 94.1647 51.3288V51.3361Z" fill="white"/>
</svg>
