<svg width="85" height="80" viewBox="0 0 85 80" fill="none" xmlns="http://www.w3.org/2000/svg">
<path d="M71.1111 0C74.6473 0 78.0387 1.40476 80.5392 3.90524C83.0397 6.40573 84.4444 9.79711 84.4444 13.3333C84.4444 16.8696 83.0397 20.2609 80.5392 22.7614C78.0387 25.2619 74.6473 26.6667 71.1111 26.6667H57.7778C55.0201 26.6672 52.3301 25.8126 50.0783 24.2207C47.8265 22.6288 46.1237 20.3778 45.2044 17.7778H40C35.1111 17.7778 31.1111 21.7778 31.1111 26.6667V27.4267C33.7124 28.3447 35.965 30.047 37.5583 32.2989C39.1516 34.5508 40.0072 37.2414 40.0072 40C40.0072 42.7586 39.1516 45.4492 37.5583 47.7011C35.965 49.953 33.7124 51.6553 31.1111 52.5733V53.3333C31.1111 58.2222 35.1111 62.2222 40 62.2222H45.2C46.1212 59.6226 47.8251 57.3722 50.0774 55.7805C52.3297 54.1887 55.0198 53.3338 57.7778 53.3333H71.1111C74.6473 53.3333 78.0387 54.7381 80.5392 57.2386C83.0397 59.7391 84.4444 63.1304 84.4444 66.6667C84.4444 70.2029 83.0397 73.5943 80.5392 76.0948C78.0387 78.5952 74.6473 80 71.1111 80H57.7778C55.0201 80.0005 52.3301 79.146 50.0783 77.554C47.8265 75.9621 46.1237 73.7111 45.2044 71.1111H40C30.1778 71.1111 22.2222 63.1556 22.2222 53.3333H13.3333C9.79711 53.3333 6.40573 51.9286 3.90524 49.4281C1.40476 46.9276 0 43.5362 0 40C0 36.4638 1.40476 33.0724 3.90524 30.5719C6.40573 28.0714 9.79711 26.6667 13.3333 26.6667H22.2222C22.2222 16.8444 30.1778 8.88889 40 8.88889H45.2C46.1212 6.28928 47.8251 4.03888 50.0774 2.44714C52.3297 0.855402 55.0198 0.000502985 57.7778 0H71.1111ZM71.1111 62.2222H57.7778C56.599 62.2222 55.4686 62.6905 54.6351 63.524C53.8016 64.3575 53.3333 65.4879 53.3333 66.6667C53.3333 67.8454 53.8016 68.9759 54.6351 69.8094C55.4686 70.6429 56.599 71.1111 57.7778 71.1111H71.1111C72.2898 71.1111 73.4203 70.6429 74.2538 69.8094C75.0873 68.9759 75.5556 67.8454 75.5556 66.6667C75.5556 65.4879 75.0873 64.3575 74.2538 63.524C73.4203 62.6905 72.2898 62.2222 71.1111 62.2222ZM26.6667 35.5556H13.3333C12.1546 35.5556 11.0241 36.0238 10.1906 36.8573C9.35714 37.6908 8.88889 38.8213 8.88889 40C8.88889 41.1787 9.35714 42.3092 10.1906 43.1427C11.0241 43.9762 12.1546 44.4444 13.3333 44.4444H26.6667C27.8454 44.4444 28.9759 43.9762 29.8094 43.1427C30.6429 42.3092 31.1111 41.1787 31.1111 40C31.1111 38.8213 30.6429 37.6908 29.8094 36.8573C28.9759 36.0238 27.8454 35.5556 26.6667 35.5556V35.5556ZM71.1111 8.88889H57.7778C56.599 8.88889 55.4686 9.35714 54.6351 10.1906C53.8016 11.0241 53.3333 12.1546 53.3333 13.3333C53.3333 14.5121 53.8016 15.6425 54.6351 16.476C55.4686 17.3095 56.599 17.7778 57.7778 17.7778H71.1111C72.2898 17.7778 73.4203 17.3095 74.2538 16.476C75.0873 15.6425 75.5556 14.5121 75.5556 13.3333C75.5556 12.1546 75.0873 11.0241 74.2538 10.1906C73.4203 9.35714 72.2898 8.88889 71.1111 8.88889Z" fill="white"/>
</svg>
