<svg width="103" height="80" viewBox="0 0 103 80" fill="none" xmlns="http://www.w3.org/2000/svg">
<path d="M73.08 32H28.92C28.414 32 28 32.4134 28 32.9187V79.0813C28 79.5866 28.414 80 28.92 80H73.08C73.586 80 74 79.5866 74 79.0813V32.9187C74 32.4134 73.586 32 73.08 32ZM35.36 39.3493H66.64V52.7847H35.36V39.3493ZM66.64 72.6507H35.36V59.2153H66.64V72.6507Z" fill="white"/>
<path d="M41 66.4298C41 67.3766 41.4214 68.2847 42.1716 68.9543C42.9217 69.6239 43.9391 70 45 70C46.0609 70 47.0783 69.6239 47.8284 68.9543C48.5786 68.2847 49 67.3766 49 66.4298C49 65.4829 48.5786 64.5748 47.8284 63.9052C47.0783 63.2357 46.0609 62.8595 45 62.8595C43.9391 62.8595 42.9217 63.2357 42.1716 63.9052C41.4214 64.5748 41 65.4829 41 66.4298ZM41 46.5702C41 47.5171 41.4214 48.4252 42.1716 49.0948C42.9217 49.7643 43.9391 50.1405 45 50.1405C46.0609 50.1405 47.0783 49.7643 47.8284 49.0948C48.5786 48.4252 49 47.5171 49 46.5702C49 45.6234 48.5786 44.7153 47.8284 44.0457C47.0783 43.3761 46.0609 43 45 43C43.9391 43 42.9217 43.3761 42.1716 44.0457C41.4214 44.7153 41 45.6234 41 46.5702Z" fill="white"/>
<path d="M85.9173 23.4475C80.6524 9.74618 67.2372 0 51.5229 0C35.8086 0 22.3935 9.73485 17.1285 23.4362C7.23097 26.0087 -0.0571396 34.9276 0.000337592 45.5124C0.0693103 57.3438 9.38062 66.9654 21.106 67.9966C21.6463 68.042 22.1061 67.6227 22.1061 67.09V60.245C22.1061 59.7917 21.7612 59.4064 21.3014 59.3497C18.1976 58.9644 15.2663 57.6272 13.0132 55.4399C10.2543 52.7767 8.73688 49.1956 8.73688 45.3991C8.73688 42.2259 9.78296 39.2341 11.7487 36.7409C13.6684 34.3156 16.3699 32.5591 19.3472 31.7884L23.7039 30.6552L25.3018 26.496C26.2904 23.9122 27.6699 21.4869 29.4057 19.2997C31.1185 17.1238 33.1532 15.2199 35.4293 13.6333C40.1539 10.3582 45.7177 8.62424 51.5229 8.62424C57.3281 8.62424 62.8919 10.3582 67.6165 13.6447C69.9041 15.2312 71.9273 17.1352 73.6402 19.311C75.376 21.4983 76.7554 23.9235 77.744 26.5074L79.3304 30.6552L83.6757 31.7884C89.9062 33.4203 94.263 39.0074 94.263 45.3878C94.263 49.1956 92.7456 52.7654 89.9867 55.4286C87.7451 57.6045 84.8252 58.9531 81.7215 59.3384C81.2616 59.3951 80.9283 59.7804 80.9283 60.2337V67.09C80.9283 67.6227 81.3996 68.042 81.9399 67.9966C93.6307 66.954 102.919 57.3438 103 45.5351C103.068 34.9503 95.7919 26.0314 85.9173 23.4475Z" fill="white"/>
</svg>
