<svg width="36" height="60" viewBox="0 0 36 60" fill="none" xmlns="http://www.w3.org/2000/svg">
<path d="M1.56797 50.8052L22.4012 29.972L1.56797 9.1388C1.07086 8.6417 0.676539 8.05154 0.407506 7.40204C0.138473 6.75254 5.2379e-09 6.0564 0 5.35339C-5.23787e-09 4.65037 0.138473 3.95424 0.407506 3.30474C0.676539 2.65523 1.07086 2.06508 1.56797 1.56797C2.06508 1.07086 2.65523 0.676536 3.30474 0.407503C3.95424 0.138471 4.65037 -5.23788e-09 5.35339 0C6.05641 5.23789e-09 6.75254 0.138471 7.40204 0.407503C8.05154 0.676536 8.6417 1.07086 9.1388 1.56797L33.7843 26.2134C35.8783 28.3075 35.8783 31.6902 33.7843 33.7843L9.1388 58.4298C8.64206 58.9275 8.05203 59.3224 7.40248 59.5919C6.75292 59.8613 6.05661 60 5.35339 60C4.65017 60 3.95385 59.8613 3.3043 59.5919C2.65475 59.3224 2.06471 58.9275 1.56797 58.4298C-0.472394 56.3357 -0.526088 52.8993 1.56797 50.8052Z" fill="#FF7500"/>
</svg>
