<svg width="60" height="60" viewBox="0 0 60 60" fill="none" xmlns="http://www.w3.org/2000/svg">
<path d="M54.1215 40.9159L45.6377 39.9473C44.6401 39.8301 43.629 39.9406 42.6802 40.2703C41.7315 40.6001 40.8698 41.1405 40.16 41.8511L34.0142 47.9969C24.5324 43.1745 16.8255 35.4676 12.0031 25.9858L18.1823 19.8066C19.6185 18.3704 20.3199 16.3664 20.0861 14.3289L19.1175 5.91194C18.9281 4.28257 18.1462 2.77973 16.9205 1.68957C15.6949 0.59941 14.1111 -0.00194478 12.4707 4.72516e-06H6.69242C2.91814 4.72516e-06 -0.221535 3.13967 0.0122697 6.91396C1.78251 35.4382 24.5952 58.2175 53.086 59.9877C56.8603 60.2215 60 57.0819 60 53.3076V47.5293C60.0334 44.1558 57.4949 41.3167 54.1215 40.9159V40.9159Z" fill="#FF7500"/>
</svg>
