<svg width="81" height="80" viewBox="0 0 81 80" fill="none" xmlns="http://www.w3.org/2000/svg">
<path d="M46.4658 55.9871C46.3092 55.832 46.0977 55.745 45.8772 55.745C45.6568 55.745 45.4453 55.832 45.2887 55.9871L33.1839 68.0919C27.5795 73.6963 18.1207 74.2901 11.9329 68.0919C5.73466 61.8936 6.32844 52.4453 11.9329 46.8408L24.0376 34.7361C24.3606 34.4131 24.3606 33.8819 24.0376 33.5589L19.8916 29.4129C19.735 29.2578 19.5235 29.1708 19.303 29.1708C19.0826 29.1708 18.8711 29.2578 18.7145 29.4129L6.6097 41.5177C-2.20323 50.3306 -2.20323 64.5917 6.6097 73.3942C15.4226 82.1967 29.6837 82.2071 38.4863 73.3942L50.591 61.2894C50.914 60.9665 50.914 60.4352 50.591 60.1123L46.4658 55.9871ZM73.4046 6.6097C64.5917 -2.20323 50.3306 -2.20323 41.5281 6.6097L29.4129 18.7145C29.2578 18.8711 29.1708 19.0826 29.1708 19.303C29.1708 19.5235 29.2578 19.735 29.4129 19.8916L33.5485 24.0272C33.8715 24.3501 34.4027 24.3501 34.7257 24.0272L46.8304 11.9225C52.4349 6.31802 61.8937 5.72424 68.0815 11.9225C74.2797 18.1207 73.6859 27.5691 68.0815 33.1735L55.9767 45.2783C55.8216 45.4349 55.7346 45.6464 55.7346 45.8668C55.7346 46.0872 55.8216 46.2988 55.9767 46.4554L60.1227 50.6014C60.4457 50.9244 60.9769 50.9244 61.2999 50.6014L73.4046 38.4967C82.2071 29.6837 82.2071 15.4226 73.4046 6.6097ZM50.2264 25.4544C50.0698 25.2993 49.8583 25.2123 49.6379 25.2123C49.4174 25.2123 49.2059 25.2993 49.0493 25.4544L25.4544 49.0389C25.2993 49.1955 25.2123 49.407 25.2123 49.6274C25.2123 49.8478 25.2993 50.0594 25.4544 50.216L29.5796 54.3412C29.9025 54.6641 30.4338 54.6641 30.7567 54.3412L54.3412 30.7567C54.6641 30.4338 54.6641 29.9025 54.3412 29.5796L50.2264 25.4544Z" fill="#FF7500"/>
</svg>
