<svg id="Layer_1" data-name="Layer 1" xmlns="http://www.w3.org/2000/svg" width="490" height="368.01" viewBox="0 0 490 368.01"><defs><style>.cls-1{fill:#ffffff;}.cls-2{fill:#ff7500;}</style></defs><title>mm-logo-dark</title><polygon class="cls-1" points="69 100.29 69 184.28 60 175.38 60 368.01 0 368.01 0 31.98 69 100.29"/><polygon class="cls-1" points="490 41.06 490 368.01 431 368.01 431 184.45 251.07 365.52 146 261.5 146 177.5 249.79 281.53 490 41.06"/><polygon class="cls-2" points="413 9.07 413 105.66 354 165.06 354 152.46 250.22 256.33 137 143.39 137 368.01 78 368.01 78 0 250.41 172.33 413 9.07"/><polygon class="cls-2" points="413 215.84 413 367.16 354 367.13 354 275.23 413 215.84"/></svg>