<svg width="443" height="500" viewBox="0 0 443 500" fill="none" xmlns="http://www.w3.org/2000/svg">
<path d="M221.453 499.072C214.576 499.072 208.157 497.238 202.197 494.029L141.216 457.808C132.047 452.764 136.632 450.93 139.382 450.013C151.761 445.887 154.054 444.97 166.891 437.633C168.268 436.716 170.102 437.174 171.476 438.091L218.244 466.06C220.078 466.977 222.37 466.977 223.746 466.06L406.687 360.148C408.521 359.231 409.438 357.398 409.438 355.105V143.737C409.438 141.444 408.521 139.61 406.687 138.693L223.746 33.2384C221.912 32.3214 219.619 32.3214 218.244 33.2384L35.3028 138.695C33.4689 139.612 32.5519 141.904 32.5519 143.738V355.105C32.5519 356.939 33.4689 359.231 35.3028 360.148L85.2803 389.032C112.332 402.787 129.294 386.74 129.294 370.693V162.076C129.294 159.325 131.588 156.574 134.798 156.574H158.182C160.933 156.574 163.683 158.866 163.683 162.076V370.692C163.683 406.913 143.967 428.003 109.58 428.003C99.0346 428.003 90.782 428.003 67.3997 416.541L19.2561 389.032C7.33564 382.154 0 369.316 0 355.562V144.197C0 130.443 7.33564 117.605 19.2561 110.726L202.197 4.8145C213.659 -1.60418 229.247 -1.60418 240.709 4.8145L423.651 110.726C435.571 117.603 442.907 130.441 442.907 144.197V355.564C442.907 369.318 435.571 382.155 423.651 389.032L240.709 494.948C234.749 497.699 227.872 499.074 221.453 499.074V499.072ZM277.848 353.728C197.611 353.728 181.106 317.05 181.106 285.872C181.106 283.121 183.398 280.37 186.607 280.37H210.448C213.199 280.37 215.493 282.204 215.493 284.955C219.161 309.254 229.706 321.176 278.306 321.176C316.82 321.176 333.327 312.465 333.327 291.834C333.327 279.911 328.742 271.2 268.678 265.238C218.702 260.195 187.524 249.192 187.524 209.304C187.524 172.164 218.701 150.157 270.971 150.157C329.657 150.157 358.543 170.33 362.211 214.346C362.211 215.721 361.753 217.097 360.836 218.472C359.919 219.389 358.543 220.306 357.168 220.306H333.327C331.033 220.306 328.742 218.472 328.282 216.18C322.78 190.963 308.567 182.711 270.971 182.711C228.791 182.711 223.746 197.382 223.746 208.385C223.746 221.683 229.706 225.808 286.559 233.143C342.955 240.479 369.547 251.026 369.547 290.456C369.088 330.804 336.078 353.728 277.848 353.728Z" fill="#86C778" fill-opacity="0.4"/>
</svg>
