<svg width="53" height="60" viewBox="0 0 53 60" fill="none" xmlns="http://www.w3.org/2000/svg">
<path d="M26.4151 28.6792C24.1509 28.6792 22.6415 30.1887 22.6415 32.4528C22.6415 33.9623 23.7736 35.0943 24.9057 35.4717L23.7736 40.7547H28.6792L27.5472 35.4717C29.0566 35.0943 29.8113 33.9623 29.8113 32.4528C30.1887 30.1887 28.6792 28.6792 26.4151 28.6792V28.6792ZM26.7925 12.4528C24.1509 12.4528 21.5094 14.3396 21.5094 16.9811V22.6415H31.6981V16.9811C31.3208 14.3396 29.434 12.4528 26.7925 12.4528V12.4528ZM26.4151 0L0 11.3208V22.6415C0.377358 39.2453 10.9434 53.9623 26.4151 60C41.8868 53.9623 52.4528 39.2453 52.8302 22.6415V11.3208L26.4151 0ZM41.5094 41.5094C41.5094 43.7736 40 45.283 37.7358 45.283H15.0943C12.8302 45.283 11.3208 43.7736 11.3208 41.5094V26.4151C11.3208 24.1509 12.8302 22.6415 15.0943 22.6415H16.2264V16.9811C16.6038 11.6981 21.1321 7.54717 26.4151 7.54717C31.6981 7.54717 36.2264 11.6981 36.6038 16.9811V22.6415H37.7358C40 22.6415 41.5094 24.1509 41.5094 26.4151V41.5094Z" fill="#A1A1A1"/>
</svg>
