<svg width="563" height="500" viewBox="0 0 563 500" fill="none" xmlns="http://www.w3.org/2000/svg">
<path d="M462.259 161.897C456.275 159.847 450.241 157.948 444.162 156.202C445.183 152.035 446.123 147.919 446.958 143.875C460.658 77.4692 451.702 23.9714 421.111 6.35732C391.781 -10.5286 343.814 7.07881 295.371 49.1775C290.597 53.3339 285.928 57.6101 281.37 62.0021C278.319 59.0816 275.214 56.2178 272.056 53.4121C221.285 8.39899 170.395 -10.5725 139.837 7.09197C110.534 24.0306 101.857 74.3222 114.19 137.256C115.417 143.489 116.803 149.69 118.346 155.853C111.142 157.897 104.191 160.072 97.539 162.388C38.0137 183.112 0 215.588 0 249.274C0 284.066 40.8094 318.963 102.808 340.123C107.834 341.831 112.902 343.414 118.007 344.87C116.349 351.508 114.877 358.19 113.593 364.91C101.835 426.752 111.017 475.855 140.242 492.686C170.426 510.068 221.087 492.204 270.416 449.145C274.416 445.644 278.328 442.044 282.148 438.349C287.084 443.104 292.152 447.721 297.345 452.195C345.13 493.252 392.321 509.831 421.517 492.954C451.673 475.522 461.475 422.772 448.75 358.594C447.748 353.566 446.623 348.563 445.379 343.59C448.937 342.537 452.429 341.454 455.833 340.327C520.286 319.004 562.222 284.531 562.222 249.274C562.222 215.465 522.981 182.77 462.259 161.897ZM448.28 317.563C445.205 318.579 442.052 319.559 438.836 320.513C431.721 298.02 422.119 274.103 410.367 249.39C421.581 225.267 430.814 201.656 437.73 179.309C443.481 180.971 449.062 182.724 454.442 184.572C506.47 202.458 538.205 228.899 538.205 249.274C538.205 270.976 503.931 299.149 448.28 317.563ZM425.189 363.252C430.816 391.629 431.618 417.287 427.891 437.346C424.544 455.37 417.81 467.386 409.482 472.199C391.766 482.441 353.875 469.129 313.011 434.015C308.18 429.856 303.466 425.563 298.874 421.142C314.717 403.842 330.549 383.73 346.002 361.392C373.182 358.985 398.859 355.046 422.145 349.671C423.292 354.292 424.311 358.822 425.189 363.252ZM191.674 470.43C174.364 476.533 160.576 476.708 152.241 471.91C134.507 461.697 127.135 422.27 137.191 369.384C138.386 363.134 139.755 356.919 141.296 350.745C164.325 355.833 189.816 359.491 217.06 361.697C232.617 383.555 248.906 403.645 265.323 421.237C261.834 424.608 258.263 427.892 254.612 431.088C232.797 450.127 210.939 463.636 191.674 470.43ZM110.578 317.43C83.1628 308.072 60.5223 295.912 45.0041 282.642C31.0584 270.719 24.0196 258.879 24.0196 249.274C24.0196 228.831 54.5399 202.756 105.445 185.035C111.623 182.886 118.089 180.857 124.798 178.954C131.835 201.805 141.063 225.697 152.2 249.857C140.918 274.375 131.558 298.649 124.453 321.77C119.793 320.437 115.167 318.99 110.578 317.43ZM137.762 132.649C127.196 78.7301 134.213 38.0569 151.872 27.8485C170.681 16.9757 212.272 32.4779 256.11 71.3464C258.968 73.8867 261.781 76.4785 264.545 79.1205C248.21 96.6358 232.07 116.577 216.651 138.305C190.209 140.752 164.898 144.682 141.627 149.947C140.194 144.215 138.905 138.448 137.762 132.651V132.649ZM380.28 192.447C374.783 182.967 369.083 173.606 363.182 164.37C381.121 166.636 398.308 169.642 414.448 173.318C409.603 188.827 403.564 205.039 396.455 221.662C391.258 211.817 385.866 202.077 380.28 192.447ZM281.381 96.2608C292.459 108.245 303.554 121.625 314.467 136.142C292.329 135.098 270.155 135.094 248.017 136.129C258.941 121.745 270.13 108.384 281.381 96.2608ZM181.848 192.612C176.332 202.164 171.04 211.844 165.976 221.642C158.984 205.079 152.999 188.792 148.113 173.063C164.154 169.48 181.26 166.55 199.084 164.327C193.118 173.618 187.371 183.048 181.848 192.61V192.612ZM199.595 335.928C181.181 333.875 163.818 331.096 147.781 327.61C152.744 311.601 158.861 294.967 166.005 278.048C171.089 287.854 176.403 297.54 181.943 307.096C187.639 316.921 193.538 326.544 199.595 335.928ZM282.044 403.976C270.659 391.713 259.305 378.145 248.217 363.553C258.982 363.974 269.957 364.188 281.111 364.188C292.571 364.188 303.899 363.932 315.049 363.436C304.101 378.292 293.047 391.879 282.044 403.976ZM396.681 277.184C404.196 294.289 410.53 310.835 415.559 326.57C399.259 330.285 381.659 333.276 363.114 335.498C369.057 326.091 374.811 316.567 380.374 306.932C386.03 297.138 391.467 287.22 396.681 277.184ZM359.57 294.949C351.053 309.722 342.058 324.214 332.598 338.403C315.463 339.615 298.29 340.217 281.111 340.208C263.614 340.208 246.596 339.664 230.208 338.603C220.501 324.447 211.335 309.929 202.727 295.081H202.729C194.163 280.311 186.161 265.222 178.741 249.846C186.142 234.467 194.119 219.371 202.657 204.59L202.655 204.592C211.189 189.807 220.283 175.352 229.916 161.256C246.635 159.993 263.781 159.335 281.109 159.335H281.111C298.518 159.335 315.686 160 332.401 161.272C341.937 175.346 350.972 189.752 359.491 204.463C368.057 219.211 376.14 234.233 383.728 249.506C376.218 264.936 368.16 280.093 359.57 294.949ZM409.116 27.1336C427.941 37.9757 435.263 81.6972 423.435 139.033C422.679 142.691 421.831 146.417 420.909 150.195C397.581 144.818 372.253 140.82 345.734 138.335C330.286 116.368 314.278 96.3968 298.208 79.1073C302.42 75.0536 306.732 71.105 311.139 67.2652C352.647 31.1972 391.441 16.956 409.116 27.1336ZM281.111 199.142C308.838 199.142 331.316 221.588 331.316 249.274C331.316 276.96 308.838 299.406 281.111 299.406C253.384 299.406 230.906 276.96 230.906 249.274C230.906 221.588 253.384 199.142 281.111 199.142Z" fill="#82D9E9" fill-opacity="0.4"/>
</svg>
