<svg width="60" height="60" viewBox="0 0 60 60" fill="none" xmlns="http://www.w3.org/2000/svg">
<g clip-path="url(#clip0)">
<path d="M10.9556 0C4.8867 0 0 4.8867 0 10.9556V49.0444C0 55.1134 4.8867 60.0001 10.9556 60.0001H31.5994V36.5438H25.3969V28.0988H31.5994V20.8838C31.5994 15.2153 35.2642 10.0106 43.7063 10.0106C47.1244 10.0106 49.6519 10.3388 49.6519 10.3388L49.4531 18.2251C49.4531 18.2251 46.8754 18.2007 44.0625 18.2007C41.0182 18.2007 40.53 19.6034 40.53 21.932V28.0988H49.695L49.2956 36.5438H40.53V60.0001H49.0444C55.1133 60.0001 60 55.1134 60 49.0445V10.9557C60 4.88676 55.1133 6e-05 49.0444 6e-05H10.9556L10.9556 0Z" fill="#FF7500"/>
</g>
<defs>
<clipPath id="clip0">
<rect width="60" height="60" fill="white"/>
</clipPath>
</defs>
</svg>
