<svg width="61" height="60" viewBox="0 0 61 60" fill="none" xmlns="http://www.w3.org/2000/svg">
<path d="M29.9925 14.6071C21.4742 14.6071 14.5996 21.4817 14.5996 30C14.5996 38.5183 21.4742 45.3929 29.9925 45.3929C38.5107 45.3929 45.3854 38.5183 45.3854 30C45.3854 21.4817 38.5107 14.6071 29.9925 14.6071ZM29.9925 40.0043C24.4838 40.0043 19.9882 35.5087 19.9882 30C19.9882 24.4913 24.4838 19.9957 29.9925 19.9957C35.5012 19.9957 39.9968 24.4913 39.9968 30C39.9968 35.5087 35.5012 40.0043 29.9925 40.0043ZM46.0158 10.3892C44.027 10.3892 42.4209 11.9953 42.4209 13.9842C42.4209 15.973 44.027 17.5791 46.0158 17.5791C48.0047 17.5791 49.6108 15.9805 49.6108 13.9842C49.6113 13.5119 49.5188 13.0442 49.3383 12.6078C49.1579 12.1713 48.8931 11.7748 48.5591 11.4409C48.2252 11.1069 47.8287 10.8421 47.3922 10.6617C46.9558 10.4812 46.4881 10.3887 46.0158 10.3892ZM59.9978 30C59.9978 25.8572 60.0353 21.7519 59.8026 17.6166C59.57 12.8134 58.4742 8.55051 54.9619 5.03813C51.442 1.51826 47.1866 0.430021 42.3834 0.197364C38.2406 -0.0352931 34.1353 0.00223234 30 0.00223234C25.8572 0.00223234 21.7519 -0.0352931 17.6166 0.197364C12.8134 0.430021 8.55051 1.52576 5.03814 5.03813C1.51826 8.55801 0.430021 12.8134 0.197364 17.6166C-0.0352931 21.7594 0.00223234 25.8647 0.00223234 30C0.00223234 34.1353 -0.0352931 38.2481 0.197364 42.3834C0.430021 47.1866 1.52576 51.4495 5.03814 54.9619C8.55801 58.4817 12.8134 59.57 17.6166 59.8026C21.7594 60.0353 25.8647 59.9978 30 59.9978C34.1428 59.9978 38.2481 60.0353 42.3834 59.8026C47.1866 59.57 51.4495 58.4742 54.9619 54.9619C58.4818 51.442 59.57 47.1866 59.8026 42.3834C60.0428 38.2481 59.9978 34.1428 59.9978 30ZM53.3933 47.697C52.8454 49.0629 52.185 50.0836 51.1268 51.1343C50.0686 52.1925 49.0554 52.8529 47.6895 53.4008C43.7418 54.9694 34.368 54.6166 29.9925 54.6166C25.617 54.6166 16.2357 54.9694 12.288 53.4083C10.9221 52.8605 9.90142 52.2 8.85071 51.1418C7.7925 50.0836 7.13205 49.0704 6.58418 47.7045C5.02313 43.7493 5.37586 34.3755 5.37586 30C5.37586 25.6245 5.02313 16.2432 6.58418 12.2955C7.13205 10.9296 7.7925 9.90893 8.85071 8.85822C9.90893 7.80751 10.9221 7.13956 12.288 6.59169C16.2357 5.03063 25.617 5.38337 29.9925 5.38337C34.368 5.38337 43.7493 5.03063 47.697 6.59169C49.0629 7.13956 50.0836 7.8 51.1343 8.85822C52.1925 9.91643 52.8529 10.9296 53.4008 12.2955C54.9619 16.2432 54.6091 25.6245 54.6091 30C54.6091 34.3755 54.9619 43.7493 53.3933 47.697Z" fill="#FF7500"/>
</svg>
