<svg width="60" height="60" viewBox="0 0 60 60" fill="none" xmlns="http://www.w3.org/2000/svg">
<path d="M46.5278 22.0832C48.5648 20.4165 49.8611 19.0276 50.4167 17.9165C49.213 18.4721 47.7778 18.8887 46.1111 19.1665C47.7778 17.9628 48.8889 16.4813 49.4444 14.7221C47.5926 15.7406 45.8796 16.3887 44.3056 16.6665C43.1944 15.3702 41.7593 14.6063 40 14.3748C38.2407 14.1434 36.5972 14.3748 35.0694 15.0693C33.5417 15.7637 32.3148 16.9211 31.3889 18.5415C30.463 20.1619 30.2315 21.9443 30.6944 23.8887C24.4907 23.5184 19.0278 20.7869 14.3056 15.6943C13.287 17.5461 13.0787 19.56 13.6806 21.7359C14.2824 23.9119 15.2778 25.4165 16.6667 26.2498C15.6481 26.1572 14.537 25.8332 13.3333 25.2776C13.4259 29.2591 15.463 31.898 19.4444 33.1943C18.3333 33.4721 17.2222 33.5184 16.1111 33.3332C17.2222 36.6665 19.6759 38.5184 23.4722 38.8887C22.0833 40.0924 20.2778 40.9952 18.0556 41.5971C15.8333 42.1989 13.75 42.3609 11.8056 42.0832C15.9722 44.6758 20.2315 45.8795 24.5833 45.6943C31.0648 45.4165 36.3194 43.1248 40.3472 38.8193C44.375 34.5137 46.4352 28.935 46.5278 22.0832ZM53.3333 0.416504C55 0.416504 56.412 0.995208 57.5694 2.15261C58.7268 3.31002 59.3056 4.67576 59.3056 6.24984V53.7498C59.3056 55.3239 58.7268 56.6896 57.5694 57.8471C56.412 59.0045 55 59.5832 53.3333 59.5832H5.97222C4.30556 59.5832 2.89352 59.0045 1.73611 57.8471C0.578704 56.6896 0 55.3239 0 53.7498V6.24984C0 4.67576 0.578704 3.31002 1.73611 2.15261C2.89352 0.995208 4.30556 0.416504 5.97222 0.416504H53.3333Z" fill="#FF7500"/>
</svg>
